<svg role="img" viewBox="0 0 24 24" xmlns="http://www.w3.org/2000/svg">
  <title>Instagram</title>
  <path d="M12 2.163c3.204 0 3.584.012 4.85.07 1.366.062 2.633.357 3.608 1.331.975.975 1.27 2.242 1.331 3.608.058 1.266.069 1.647.069 4.85s-.012 3.584-.069 4.85c-.062 1.366-.357 2.633-1.331 3.608-.975.975-2.242 1.27-3.608 1.331-1.266.058-1.647.069-4.85.069s-3.584-.012-4.85-.069c-1.366-.062-2.633-.357-3.608-1.331-.975-.975-1.27-2.242-1.331-3.608C2.175 15.647 2.163 15.267 2.163 12s.012-3.584.069-4.85c.062-1.366.357-2.633 1.331-3.608.975-.975 2.242-1.27 3.608-1.331C8.416 2.175 8.796 2.163 12 2.163zm0-2.163C8.741 0 8.332.013 7.052.072 5.775.131 4.598.465 3.6 1.462c-.997.997-1.331 2.174-1.39 3.452C2.013 6.668 2 7.077 2 12c0 4.923.013 5.332.072 6.612.059 1.278.393 2.455 1.39 3.452.997.997 2.174 1.331 3.452 1.39 1.28.059 1.689.072 6.612.072s5.332-.013 6.612-.072c1.278-.059 2.455-.393 3.452-1.39.997-.997 1.331-2.174 1.39-3.452.059-1.28.072-1.689.072-6.612s-.013-5.332-.072-6.612c-.059-1.278-.393-2.455-1.39-3.452C19.455.465 18.278.131 17 .072 15.719.013 15.309 0 12 0z"/>
  <path d="M12 5.838a6.162 6.162 0 1 0 0 12.324 6.162 6.162 0 0 0 0-12.324zm0 10.162a3.999 3.999 0 1 1 0-7.998 3.999 3.999 0 0 1 0 7.998z"/>
  <circle cx="18.406" cy="5.594" r="1.44"/>
</svg>
