<svg role="img" viewBox="0 0 24 24" xmlns="http://www.w3.org/2000/svg">
  <title>Threads</title>
  <path d="M12.5 0C5.607 0 0 5.607 0 12.5S5.607 25 12.5 25 25 19.393 25 12.5 19.393 0 12.5 0zm.191 23.099c-5.882 0-10.651-4.768-10.651-10.651 0-5.882 4.769-10.651 10.651-10.651 5.882 0 10.651 4.769 10.651 10.651S18.573 23.099 12.691 23.099zm-1.3-15.9H9.556v8.971h1.834V7.199zm3.873 1.944c-.582-.179-1.058-.27-1.43-.27-.102 0-.271.008-.506.025l-.121 3.491c.215-.64.464-1.107.75-1.403.287-.295.706-.443 1.264-.443.438 0 .803.119 1.094.357.29.238.436.585.436 1.04v3.421h1.834V11.574c0-1.985-1.06-2.973-3.121-2.43z"/>
</svg>
