<svg role="img" viewBox="0 0 24 24" xmlns="http://www.w3.org/2000/svg">
  <title>Twitter</title>
  <path d="M23.954 4.569c-.885.392-1.83.656-2.825.775 1.014-.609 1.794-1.574 2.163-2.724-.951.555-2.005.959-3.127 1.184-.897-.959-2.178-1.555-3.594-1.555-2.719 0-4.924 2.205-4.924 4.917 0 .39.045.765.127 1.124C7.691 8.094 4.066 6.13 1.64 3.161c-.427.722-.666 1.561-.666 2.475 0 1.71.87 3.213 2.188 4.096-.807-.026-1.566-.248-2.228-.616v.062c0 2.385 1.693 4.374 3.946 4.827-.413.111-.849.171-1.296.171-.314 0-.615-.03-.916-.086.631 1.953 2.445 3.377 4.6 3.418-1.68 1.319-3.809 2.105-6.102 2.105-.39 0-.779-.023-1.17-.067C2.741 19.332 5.95 20.1 9.29 20.1c11.072 0 17.13-9.156 17.13-17.13 0-.26-.006-.522-.019-.781 1.178-.853 2.2-1.917 3.013-3.134z"/>
</svg>
